<svg width="144" height="144" viewBox="0 0 144 144" fill="none" xmlns="http://www.w3.org/2000/svg">
<g clip-path="url(#clip0_132_2)">
<rect width="144" height="144" fill="black"/>
<path d="M6.60875 90V53.7H17.7463C19.6025 53.7 21.005 54.1262 21.9538 54.9787C22.9025 55.8175 23.535 57 23.8513 58.5262C24.1813 60.0387 24.3463 61.8194 24.3463 63.8681C24.3463 65.8481 24.0919 67.4294 23.5831 68.6119C23.0881 69.7944 22.1463 70.6125 20.7575 71.0662C21.8988 71.3 22.6963 71.8706 23.15 72.7781C23.6175 73.6719 23.8513 74.8337 23.8513 76.2637V90H16.6944V75.7894C16.6944 74.7306 16.4744 74.0775 16.0344 73.83C15.6081 73.5687 14.9138 73.4381 13.9513 73.4381V90H6.60875ZM13.9925 67.1475H15.7456C16.7494 67.1475 17.2513 66.0544 17.2513 63.8681C17.2513 62.4519 17.1413 61.5237 16.9213 61.0837C16.7013 60.6437 16.2888 60.4237 15.6838 60.4237H13.9925V67.1475ZM26.7388 90V53.7H41.2588V60.7125H34.1225V67.7869H40.97V74.6137H34.1225V82.9256H41.7331V90H26.7388ZM52.7675 90.33C49.4538 90.33 47.0613 89.505 45.59 87.855C44.1325 86.205 43.4038 83.5787 43.4038 79.9762V76.4287H50.5813V80.9662C50.5813 81.805 50.705 82.465 50.9525 82.9462C51.2138 83.4137 51.6606 83.6475 52.2931 83.6475C52.9531 83.6475 53.4069 83.455 53.6544 83.07C53.9156 82.685 54.0463 82.0525 54.0463 81.1725C54.0463 80.0587 53.9363 79.1306 53.7163 78.3881C53.4963 77.6319 53.1113 76.9169 52.5613 76.2431C52.025 75.5556 51.2756 74.7581 50.3131 73.8506L47.0544 70.7569C44.6206 68.4606 43.4038 65.8344 43.4038 62.8781C43.4038 59.7844 44.1188 57.4262 45.5488 55.8037C46.9925 54.1812 49.0756 53.37 51.7981 53.37C55.1256 53.37 57.4838 54.2569 58.8725 56.0306C60.275 57.8044 60.9763 60.4994 60.9763 64.1156H53.5925V61.62C53.5925 61.125 53.4481 60.74 53.1594 60.465C52.8844 60.19 52.5063 60.0525 52.025 60.0525C51.4475 60.0525 51.0213 60.2175 50.7463 60.5475C50.485 60.8637 50.3544 61.2762 50.3544 61.785C50.3544 62.2937 50.4919 62.8437 50.7669 63.435C51.0419 64.0262 51.585 64.7069 52.3963 65.4769L56.5831 69.4987C57.4219 70.2962 58.1919 71.1419 58.8931 72.0356C59.5944 72.9156 60.1581 73.9469 60.5844 75.1294C61.0106 76.2981 61.2238 77.7281 61.2238 79.4194C61.2238 82.8294 60.5913 85.5037 59.3263 87.4425C58.075 89.3675 55.8888 90.33 52.7675 90.33ZM66.7719 90V60.6712H62.4613V53.7H78.3425V60.6712H74.0319V90H66.7719ZM89.2738 90L92.78 53.7H105.093L108.538 90H101.669L101.154 84.1425H96.7813L96.3275 90H89.2738ZM97.2969 78.3469H100.597L99.0088 59.8875H98.6788L97.2969 78.3469ZM110.765 90V53.7H120.356C122.363 53.7 123.951 54.1469 125.12 55.0406C126.303 55.9344 127.148 57.2062 127.657 58.8562C128.166 60.5062 128.42 62.4725 128.42 64.755C128.42 66.955 128.207 68.8731 127.781 70.5094C127.354 72.1319 126.591 73.39 125.491 74.2837C124.405 75.1775 122.858 75.6244 120.851 75.6244H117.901V90H110.765ZM117.901 69.1069H118.314C119.661 69.1069 120.486 68.7287 120.789 67.9725C121.091 67.2162 121.243 66.1025 121.243 64.6312C121.243 63.2562 121.091 62.1975 120.789 61.455C120.5 60.6987 119.806 60.3206 118.706 60.3206H117.901V69.1069ZM130.4 90V53.7H137.413V90H130.4Z" fill="white"/>
</g>
<defs>
<clipPath id="clip0_132_2">
<rect width="144" height="144" fill="white"/>
</clipPath>
</defs>
</svg>
